<?xml version="1.0" encoding="utf-8"?>
<!-- Generator: Adobe Illustrator 24.0.1, SVG Export Plug-In . SVG Version: 6.00 Build 0)  -->
<svg version="1.1" id="Layer_1" xmlns="http://www.w3.org/2000/svg" xmlns:xlink="http://www.w3.org/1999/xlink" x="0px" y="0px"
	 viewBox="0 0 59.3 45" style="enable-background:new 0 0 59.3 45;" xml:space="preserve">
<path id="Path_24" style="fill:#80785D;" d="M11.1,10.4c-0.1,0-0.3,0.1-0.4,0.2c-1.4,1.4-4.1,4.4-5.6,6L3.3,15
	c-0.2-0.2-0.5-0.2-0.7,0c-0.2,0.2-0.2,0.5,0,0.7c0,0,0,0,0,0l2.2,2c0.2,0.2,0.5,0.2,0.7,0c1.5-1.5,4.5-4.9,6-6.4
	c0.2-0.2,0.2-0.5,0-0.7C11.4,10.5,11.3,10.4,11.1,10.4 M5.5,10.1H5.2c-0.4,0-0.8,0.1-1.2,0.2C1.1,11-0.6,14,0.2,16.9
	C1,19.9,4,21.6,6.9,20.8c2.9-0.8,4.6-3.8,3.8-6.7c-0.1-0.3-0.3-0.5-0.6-0.4c-0.3,0.1-0.5,0.3-0.4,0.6v0.1c0.6,2.4-0.8,4.8-3.1,5.4
	c-2.4,0.6-4.8-0.8-5.4-3.1c-0.6-2.4,0.8-4.8,3.1-5.4C5.6,10.9,7,11.2,8,12c0.2,0.2,0.6,0.1,0.7-0.2c0.1-0.2,0.1-0.5-0.1-0.7l0,0
	C7.7,10.4,6.6,10.1,5.5,10.1"/>
<path id="Path_25" style="fill:#80785D;" d="M24.1,7.4c-0.3-0.3-0.7-0.6-1-0.9v4.1h-1.2v-6h0.5c0.9,0.6,1.7,1.2,2.5,2
	c0.6,0.5,1.1,1.1,1.5,1.7V4.7h1.2v5.9h-1C25.9,9.4,25,8.3,24.1,7.4"/>
<path id="Path_26" style="fill:#80785D;" d="M30,5.7V7h2v1h-2v1.6h2.5v1h-3.7V4.7h3.5v1L30,5.7z"/>
<path id="Path_27" style="fill:#80785D;" d="M40.9,4.7c-0.2,1.2-0.5,2.4-0.8,3.6c-0.2,0.6-0.5,1.5-0.9,2.3h-1.3
	c-0.2-0.4-0.4-0.8-0.6-1.3S37,8.4,36.8,8c-0.1,0.3-0.3,0.9-0.4,1.3s-0.4,0.9-0.6,1.3h-1.3c-0.4-0.9-0.6-1.7-0.9-2.3
	c-0.4-1.2-0.7-2.4-0.8-3.6h1.1c0.2,1.1,0.4,2.2,0.8,3.2c0.1,0.4,0.3,0.9,0.5,1.4c0.1-0.1,0.1-0.3,0.2-0.4c0.3-0.8,0.6-1.7,0.8-2.6
	h1.4c0.2,0.9,0.5,1.7,0.8,2.6c0.1,0.1,0.1,0.3,0.2,0.4c0.2-0.4,0.3-0.9,0.4-1.4c0.3-1,0.6-2.1,0.8-3.2H40.9z"/>
<path id="Path_28" style="fill:#80785D;" d="M18.6,13.4v1.3h2v1h-2v1.6h2.5v1h-3.7v-5.9H21v1L18.6,13.4z"/>
<path id="Path_29" style="fill:#80785D;" d="M25.5,12.4h1.2v3.6c0,1.2-0.2,2.4-2.4,2.4s-2.4-1.2-2.4-2.4v-3.6h1.2v3.4
	c0,1.1,0.3,1.7,1.2,1.7s1.2-0.6,1.2-1.7L25.5,12.4z"/>
<path id="Path_30" style="fill:#80785D;" d="M32.3,18.3h-1.2c-0.2-0.4-0.3-0.7-0.6-1.1c-0.3-0.4-0.6-0.8-1.1-1.1h-0.5v2.2h-1.2v-5.9
	h2c1.6,0,2.1,0.7,2.1,1.8c0,0.7-0.4,1.4-1.1,1.6c0.3,0.2,0.5,0.5,0.7,0.8C31.9,17.1,32.1,17.7,32.3,18.3 M28.9,15.1h0.8
	c0.8,0,1-0.4,1-0.9c0-0.7-0.4-0.9-0.9-0.9h-0.8V15.1z"/>
<path id="Path_31" style="fill:#80785D;" d="M32.5,15.2c0-1.6,1.3-3,3-3s3,1.3,3,3c0.1,1.6-1.2,3-2.8,3.1c-1.6,0.1-3-1.2-3.1-2.8
	C32.5,15.4,32.5,15.3,32.5,15.2 M33.7,15.2c0,1.2,0.6,2.1,1.7,2.1c1.3,0,1.8-1,1.8-2.1c0.1-1-0.6-1.8-1.6-1.9c-0.1,0-0.1,0-0.2,0
	C34.3,13.3,33.7,14,33.7,15.2"/>
<path id="Path_32" style="fill:#80785D;" d="M45.3,16.3c0,1.1-0.8,2-1.9,2.1c-0.1,0-0.1,0-0.2,0c-1.1,0-2.1-0.9-2.2-2
	c0,0,0-0.1,0-0.1c0-0.8,0.3-1.6,0.9-2.2c0.6-0.8,1.4-1.4,2.3-1.8l0.4,1c-0.5,0.2-1,0.5-1.4,1l-0.3,0.3c1-0.3,2,0.3,2.3,1.3
	C45.3,15.9,45.3,16.1,45.3,16.3 M44.1,16.3c0.1-0.5-0.3-1-0.8-1c0,0-0.1,0-0.1,0c-0.5,0-1,0.4-1,1c0,0,0,0.1,0,0.1
	c-0.1,0.5,0.3,1,0.8,1.1c0,0,0.1,0,0.1,0C43.7,17.4,44.1,17,44.1,16.3"/>
<path id="Path_33" style="fill:#80785D;" d="M14.6,21v1.3h2v1h-2v1.6h2.5v1h-3.7V20h3.5v1H14.6z"/>
<path id="Path_34" style="fill:#80785D;" d="M20.2,22.7c-0.3-0.3-0.7-0.6-1-0.9v4.1H18v-6h0.5c0.9,0.6,1.7,1.2,2.5,2
	c0.6,0.5,1.1,1.1,1.5,1.7V20h1.2v5.9h-1C22,24.7,21.2,23.6,20.2,22.7"/>
<path id="Path_35" style="fill:#80785D;" d="M29.9,22.8v2.6c-0.6,0.4-1.4,0.7-2.2,0.6c-1.6,0.1-3-1.1-3.1-2.7c0-0.1,0-0.3,0-0.4
	c0-1.6,1.3-3,2.9-3c0.1,0,0.2,0,0.3,0c0.7,0,1.4,0.2,2,0.6l-0.6,0.8c-0.4-0.3-0.9-0.4-1.4-0.4c-1-0.1-1.9,0.6-2,1.6
	c0,0.1,0,0.2,0,0.3c-0.1,1,0.6,1.9,1.6,2c0.1,0,0.2,0,0.4,0c0.3,0,0.6-0.1,0.9-0.2v-1h-1.1v-1L29.9,22.8z"/>
<rect id="Rectangle_21" x="31" y="20" style="fill:#80785D;" width="1.2" height="5.9"/>
<path id="Path_36" style="fill:#80785D;" d="M35.6,22.7c-0.3-0.3-0.7-0.6-1-0.9v4.1h-1.2v-6h0.5c0.9,0.6,1.7,1.2,2.5,2
	c0.6,0.5,1.1,1.1,1.5,1.7V20h1.2v5.9h-1C37.4,24.7,36.6,23.6,35.6,22.7"/>
<path id="Path_37" style="fill:#80785D;" d="M41.5,21v1.3h2v1h-2v1.6h2.5v1h-3.7V20h3.5v1H41.5z"/>
<path id="Path_38" style="fill:#80785D;" d="M48.6,21.3c-0.4-0.3-0.9-0.5-1.4-0.5c-0.6,0-1,0.3-1,0.7c0,0.2,0.1,0.4,0.6,0.7
	c0.3,0.1,1.1,0.4,1.4,0.6c0.7,0.2,1.1,0.8,1.1,1.5c0,0.9-0.7,1.7-2.3,1.7c-0.8,0-1.7-0.2-2.4-0.7l0.5-0.9c0.6,0.4,1.3,0.6,2,0.6
	c0.9,0,1-0.4,1-0.6S48,24,47.7,23.9c-0.4-0.2-1.2-0.5-1.6-0.7c-0.7-0.2-1.1-0.8-1.1-1.5c0-1.1,0.9-1.7,2.3-1.7
	c0.6,0,1.3,0.2,1.8,0.6L48.6,21.3z"/>
<path id="Path_39" style="fill:#80785D;" d="M59.3,41.8v-9.3c0-1.4-0.9-2.6-2.2-3v-24c0-3-2.4-5.5-5.5-5.5H11C8,0,5.6,2.5,5.6,5.5v4
	c0.4,0,0.8,0.1,1.2,0.2V5.5c0-2.3,1.9-4.2,4.2-4.2h40.7c2.3,0,4.2,1.9,4.2,4.2c0,0,0,0,0,0v23.8H6.8v-7.9c-0.4,0.1-0.8,0.1-1.2,0.1
	v7.9c-1.3,0.5-2.2,1.7-2.2,3v9.3c0,1.8,1.5,3.2,3.2,3.2h49.4C57.9,45,59.3,43.5,59.3,41.8 M19,36.2h-0.9c-0.1-0.3-0.2-0.6-0.3-1h-2
	c-0.1,0.4-0.2,0.7-0.3,1h-0.9c0.2-0.9,0.5-1.7,0.9-2.6c0.2-0.6,0.5-1.2,0.8-1.8h1c0.3,0.6,0.6,1.2,0.8,1.8
	C18.5,34.5,18.8,35.3,19,36.2 M23.2,31.8c-0.2,1-0.5,1.9-0.9,2.9c-0.2,0.5-0.4,1-0.7,1.5h-0.9c-0.2-0.4-0.4-1-0.7-1.5
	c-0.4-0.9-0.7-1.9-0.9-2.9H20c0.2,0.9,0.5,1.7,0.8,2.6l0.4,0.9l0.4-0.9c0.3-0.8,0.6-1.7,0.8-2.6L23.2,31.8z M27.6,36.2h-0.9
	c-0.1-0.3-0.2-0.6-0.3-1h-1.9c-0.1,0.4-0.2,0.7-0.3,1h-0.9c0.2-0.9,0.5-1.7,0.8-2.6c0.2-0.6,0.5-1.2,0.8-1.8h1
	c0.3,0.6,0.6,1.2,0.8,1.8C27.1,34.5,27.3,35.3,27.6,36.2 M28.1,41.9h-0.8c-0.5-0.9-1.1-1.7-1.8-2.4c-0.2-0.2-0.5-0.4-0.8-0.7v3.1
	h-0.9v-4.5h0.4c0.6,0.4,1.3,0.9,1.8,1.5c0.4,0.4,0.8,0.8,1.2,1.3v-2.7h0.9L28.1,41.9z M29.2,36.2h-0.9v-4.4h0.9L29.2,36.2z
	 M31.2,37.4c1.2-0.1,2.2,0.8,2.2,2c0,0.1,0,0.2,0,0.2c0.1,1.2-0.9,2.3-2.1,2.3C30.1,42,29.1,41,29,39.8c0-0.1,0-0.1,0-0.2
	c-0.1-1.2,0.8-2.1,2-2.2C31.1,37.4,31.2,37.4,31.2,37.4 M33,36.2h-2.6v-4.4h0.9v3.6H33L33,36.2z M37.4,36.2h-0.9
	c-0.1-0.3-0.2-0.6-0.3-1h-2c-0.1,0.4-0.2,0.7-0.3,1h-0.9c0.2-0.9,0.5-1.7,0.9-2.6c0.2-0.6,0.5-1.2,0.8-1.8h1
	c0.3,0.6,0.6,1.2,0.8,1.8C36.9,34.5,37.2,35.3,37.4,36.2 M38,40.6c0,0.1,0.1,0.2,0.1,0.3c0.1-0.3,0.2-0.7,0.3-1
	c0.3-0.8,0.4-1.6,0.6-2.4h0.8c-0.1,0.9-0.3,1.8-0.6,2.6c-0.2,0.5-0.4,1.1-0.6,1.7h-1c-0.2-0.3-0.3-0.6-0.4-0.9s-0.2-0.7-0.3-1
	c-0.1,0.3-0.2,0.7-0.3,1s-0.3,0.6-0.4,0.9h-1c-0.3-0.6-0.5-1.3-0.6-1.7c-0.3-0.9-0.5-1.7-0.6-2.6h0.8c0.1,0.8,0.3,1.6,0.6,2.4
	c0.1,0.3,0.2,0.7,0.3,1c0-0.1,0.1-0.2,0.1-0.3c0.3-0.6,0.5-1.2,0.6-1.9h1C37.6,39.4,37.8,40,38,40.6 M41.3,35c0,0.7-0.6,1.3-1.3,1.2
	c0,0-0.1,0-0.1,0h-1.8v-4.4h1.5c1,0,1.3,0.5,1.3,1.1c0,0.4-0.2,0.8-0.6,0.9C40.9,34,41.3,34.4,41.3,35 M42,38.9l-0.7,1.3l-0.7-1.3
	l0.7-1.3L42,38.9z M45,36.2h-2.6v-4.4h0.9v3.6H45L45,36.2z M48.5,36.2h-2.8v-4.4h2.6v0.7h-1.7v1h1.5v0.7h-1.5v1.2h1.9L48.5,36.2z
	 M40.4,34.9c0-0.4-0.3-0.6-0.9-0.6H39v1.2h0.6C40.2,35.5,40.4,35.3,40.4,34.9 M40.1,33.1c0-0.3-0.2-0.6-0.5-0.6c0,0-0.1,0-0.1,0H39
	v1.2h0.5C39.9,33.6,40.1,33.5,40.1,33.1 M34.5,34.5H36L35.8,34c-0.2-0.4-0.4-0.9-0.5-1.3c-0.2,0.4-0.3,0.8-0.5,1.3L34.5,34.5z
	 M31.2,38.2c-0.7,0-1.3,0.6-1.3,1.3c0,0.1,0,0.1,0,0.2c0,0.9,0.5,1.6,1.3,1.6c0.9,0,1.3-0.8,1.3-1.6C32.6,38.9,32.1,38.3,31.2,38.2
	C31.3,38.2,31.3,38.2,31.2,38.2 M24.7,34.5h1.5L25.9,34c-0.2-0.4-0.4-0.9-0.5-1.3c-0.2,0.4-0.3,0.8-0.5,1.3L24.7,34.5z M16.1,34.5
	h1.5L17.4,34c-0.2-0.4-0.4-0.9-0.5-1.3c-0.2,0.4-0.3,0.8-0.5,1.3L16.1,34.5z"/>
</svg>
