<?xml version="1.0" encoding="utf-8"?>
<!-- Generator: Adobe Illustrator 24.0.1, SVG Export Plug-In . SVG Version: 6.00 Build 0)  -->
<svg version="1.1" id="CITROEN_Corporate_logo_2016"
	 xmlns="http://www.w3.org/2000/svg" xmlns:xlink="http://www.w3.org/1999/xlink" x="0px" y="0px" viewBox="0 0 309 276.3"
	 style="enable-background:new 0 0 309 276.3;" xml:space="preserve">
<title>masque</title>
<path style="fill:#FCFCFC;" d="M308.7,142.4v-0.2c0-13.2-10-24.6-10.4-25.1C293.9,112.4,191.5,0,154.4,0S15,112.4,10.6,117.1
	c-0.4,0.5-10.4,11.8-10.4,25.1v0.2H0v106.8c0,10.3,0.7,20.7,0.7,20.8c0,0.5,0.3,4.9,2.7,6.1c0.4,0.2,0.8,0.3,1.3,0.3
	c1.1-0.1,2.2-0.5,3-1.2c1.1-1,105.6-92.6,146.7-92.6s145.7,91.7,146.7,92.6c0.9,0.7,2,1.2,3.1,1.3c0.4,0,0.9-0.1,1.3-0.3
	c2.5-1.2,2.7-5.6,2.7-6.1c0-0.1,0.7-10.5,0.7-20.8V142.4H308.7z M308,162.9L308,162.9z M308.1,160.7L308.1,160.7z M308.1,161.6
	L308.1,161.6z M308.1,161.9L308.1,161.9z M0.9,163L0.9,163z"/>
<path style="fill:#B6352C;" d="M298.6,224.1c-4.4-4.8-106.9-117.3-144-117.3S15,219.3,10.6,224.1l0,0c-0.4,0.5-10.4,11.9-10.4,25.1
	c0,10.3,0.7,20.7,0.7,20.8c0,0.5,0.3,4.9,2.7,6.1c0.4,0.2,0.8,0.3,1.3,0.3c1.1-0.1,2.2-0.5,3-1.2c1.1-1,105.6-92.6,146.7-92.6
	s145.7,91.7,146.7,92.6c0.9,0.7,1.9,1.2,3.1,1.3c0.4,0,0.9-0.1,1.3-0.3c2.5-1.2,2.7-5.6,2.7-6.1c0-0.1,0.7-10.5,0.7-20.8
	C309,235.9,299,224.5,298.6,224.1z M299.7,261.8c-27-23-107-88.3-145.1-88.3S36.5,238.8,9.5,261.7c-0.2-5.4-0.3-8.7-0.3-13.6
	c0,0-0.7-8,6.4-16c58.5-52.7,119.8-78.4,121.7-79.2c18.3-7.7,17.3-6.2,17.2-37.1c0.4,0,0.9,0,1.3,0c25.7,2.3,95,69.1,136,114.3
	c0.1,0.1,8.1,9.3,8.1,19C300,253.7,299.9,258.1,299.7,261.8L299.7,261.8z"/>
<path style="fill:#B6352C;" d="M298.4,117.1C294.1,112.4,191.7,0,154.6,0S15.1,112.4,10.8,117.1l0,0c-0.4,0.5-10.4,11.8-10.4,25.1
	C0.3,152.5,1,162.9,1,163c0,0.5,0.3,4.9,2.7,6.1c0.4,0.2,0.8,0.3,1.3,0.3c1.1-0.1,2.1-0.5,3-1.2c1.1-1,105.4-92.6,146.6-92.6
	s145.5,91.6,146.5,92.5c0.9,0.7,2,1.2,3.1,1.3c0.4,0,0.9-0.1,1.3-0.3c2.5-1.2,2.7-5.6,2.7-6.1c0-0.1,0.7-10.5,0.7-20.8
	C308.9,129,298.9,117.6,298.4,117.1z M299.5,154.8c-26.9-22.9-106.9-88.3-144.9-88.3s-118,65.3-144.9,88.3
	c-0.2-5.4-0.3-8.7-0.3-13.6c0,0-0.7-8,6.4-16c58.4-52.6,119.7-78.4,121.6-79.2c18.3-7.7,17.2-6.2,17.2-37c0.4,0,0.9,0,1.3,0
	c25.7,2.3,94.9,69,135.8,114.1c0.1,0.1,8.1,9.3,8.1,19C299.8,146.8,299.7,151.3,299.5,154.8L299.5,154.8z"/>
</svg>
